<?xml version="1.0" encoding="utf-8"?>
<!-- Generator: Adobe Illustrator 24.0.2, SVG Export Plug-In . SVG Version: 6.00 Build 0)  -->
<svg version="1.1" xmlns="http://www.w3.org/2000/svg" xmlns:xlink="http://www.w3.org/1999/xlink" x="0px" y="0px"
	 viewBox="0 0 887 182" style="enable-background:new 0 0 887 182;" xml:space="preserve">
<style type="text/css">
	.st0{display:none;}
	.st1{fill:#EDEDED;}
	.st2{fill:#FFFFFF;}
	.st3{fill:#E0E0E0;}
	.st4{fill:#ED2024;}
	.st5{fill:#6F0000;}
	.st6{fill:#BDBDBD;}
</style>
<g id="Layer_1" class="st0">
	
		<image style="display:inline;overflow:visible;" width="1300" height="1390" xlink:href="../../../../Downloads/Anywhere Fitness Images/simple-modern-abstract-fitness-logo-set-active-sport-elegant-people-medical-health-care-center-design-concept-113022696.jpg"  transform="matrix(0.446 0 0 0.446 176.0863 232)">
	</image>
</g>
<g id="Layer_2">
	<g>
		<path class="st1" d="M126.4-334.2l-19.6,1.9l1,2.9l0,0.2l0-0.2l0,0l-0.5-1.4l0,0l-0.5-1.5l-20.8-1.8l-21.9,1.9l-38.1,39.5
			l49.5-8.4l44.1,8.2l38.8-8.4L126.4-334.2z M77.9-308.7l0.4-1.2L77.9-308.7L77.9-308.7z M82.1-321.8l1.5-4.8L82.1-321.8L82.1-321.8
			z M108.9-326.1l1.6,5L108.9-326.1L108.9-326.1z M112.7-314.4l-0.5-1.4h0l-0.1-0.3l0.1,0.3L112.7-314.4L112.7-314.4z"/>
		<g>
			<g>
				<polygon class="st2" points="86.1,-336.5 85.4,-334.4 85.3,-334 84.8,-332.4 82.1,-324.1 80.8,-320.1 80.5,-319.1 78.7,-313.3 
					77.9,-311 75.5,-303.4 26.1,-295.1 64.1,-334.6 				"/>
			</g>
			<g>
				<polygon class="st2" points="158.4,-303.6 119.7,-295.2 116.2,-306 115.7,-307.5 113.3,-314.9 112.9,-316 112.2,-318.2 
					111.9,-319.2 111.4,-320.8 108.9,-328.4 108,-331.2 107.8,-331.8 106.9,-334.7 126.4,-336.6 				"/>
			</g>
			<polygon class="st3" points="112.7,-316.8 112.2,-318.2 112.2,-318.2 108.9,-328.4 108.9,-328.4 108.7,-329.1 107.8,-331.8 
				107.8,-331.8 107.4,-333.2 107.3,-333.2 107.3,-333.2 106.9,-334.7 86.1,-336.5 85.3,-334.2 85.3,-334 85.1,-333.3 82.1,-324.1 
				82.1,-324.1 81.4,-321.9 77.9,-311 77.9,-311 75.5,-303.4 119.7,-295.2 			"/>
		</g>
		<path class="st4" d="M143.4-312.5l-13-8l5-1.7l-8.8-5.1l3.3-1.3l-4.5-2.4l1.3-0.8l-1-0.4l-1.2,0.8l-2.8-1.5l2.8-1.6l-0.9-0.3
			l-2.7,1.5l-2.1-1.1l-0.7,0.2l2.2,1.2l-2.8,1.6l-1.9-2.5l-1,0l1.9,2.7l-6.7-0.4l-0.1-1.9l-1-0.1l0,1.9l-1-0.1l0.2,0.5l0.9,0.1
			l0,2.7l2.5,7.6l0.3-0.8l9.2-3.5l2.2,4.6l-11.1,1.3l0.3,1l0,0l11.2-1.3l1.1,2.3l-11.6,1.2l0.4,1.1l11.7-1.2l3.8,8.1l-13.1,0.6
			l0.5,1.5l22.7-1l-1.1-1.5l-7.3,0.3l-3.9-7.9l16.5,4.4L143.4-312.5z M109.9-331.1l6.3,0.4l-6.1,3.4L109.9-331.1z M111.4-322.6
			l-1.2-3.7l2.5-1.4l2.8,3.6L111.4-322.6z M116.5-324.5l-3-3.7l3.7-2.1l3.1,4.4L116.5-324.5z M118-330.7l3.2-1.8l7,3.7l-6.8,2.5
			L118-330.7z M125.8-327l7.4,4.4l-4.1,1.4l-7-4.3L125.8-327z M124.3-320.6l-1.9-3.9l5.5,3.5L124.3-320.6z M126.1-317.1l-1.3-2.6
			l4.4-0.5l10.6,6.7L126.1-317.1z M85.1-334.5l-1.6,0.6l-1.1-1.3l-7.6,2.7l-1.1-1.7l-1,0.2l2.1,3.4l-5.6,2.2l-2.4-4.6l-1.1,0.3
			L68-328l-4.1,0.9l-0.4-1.8l-1.3,0.3l0.4,1.8l-2,0.4l0,0.6l2.2-0.5l0.6,2.7l-7.4,1.9l0,5l-6.4,2l-0.1,1l6.5-2.1l0,1.9l-10.4,3.7
			l-0.1,1.1l10.5-3.8l0,2.6l-16.1,6.5l-0.1,1.4l25.5-10.5l-1.5,6l1,0.5l13.3-4.8l0.7-2.3l-1.2-4.5l3.1-1.3l0.3-1l-0.2,0l-3.5,1.4
			l-1.4-3.4l6.3-2l2.7-8.3l-0.9-1.1l1.4-0.6l0.4-0.2l-0.3-0.2L85.1-334.5z M81.9-334.5l0.7,0.9l-6.8,2.6l-0.7-1.1L81.9-334.5z
			 M57.4-321.3l6-1.5l0.8,3.6l-6.6,2.1L57.4-321.3z M57.6-316.3l6.7-2.2l0.3,1.5l-7,2.5L57.6-316.3z M57.8-310.9l-0.1-2.5l7.1-2.6
			l0.4,2.1L57.8-310.9z M64.1-326.5l4.2-0.9l2.9,6l-5.5,1.7L64.1-326.5z M74.4-321.7l1.3,3.5l-8.8,3.5l-1.1-4.3L74.4-321.7z
			 M76-317.2l1.2,5.2l-11.4,4l1.2-5.5L76-317.2z M72.6-321.9l-2.7-5.1l9.3,3L72.6-321.9z M81.8-324.8l-1.1,0.3l-2.7-0.9l4.3-1.3
			L81.8-324.8z M82.7-327.5l-5.8,1.8l-3.3-1l10.3-4.5L82.7-327.5z M84-331.9L72.7-327l-2.8-0.9l13.2-5.2L84-331.9z"/>
		<path class="st5" d="M115.7-307.5l-9.1,0.4l2.6-7.4l4.1-0.4l-0.4-1.1l-3.3,0.3l0.9-2.6l1.7,0.1l0,0l-0.3-1l0,0l-1,0l0.5-1.6
			l-2.5-7.6l0,1.5l-4.6-0.9l-0.2-3.7l3.9,0.3l-0.2-0.5L104-332l-0.1-1.4l-1,0l0,1.4l-3.6-0.2l0.5-1.5l-1-0.1l-0.6,1.5l-5.6,0.1
			l2.1-2l-0.9-0.2l-2.3,2.2l-2.2,0l0.5-2.5l-1,0l-0.6,2.5l-3.3,0.1l-0.2-0.3l-2.7,8.3l0.1,0l3.9,0.4l-1.4,3.8l-3.9-0.1l-0.3,1
			l0.2-0.1l3.7,0.1l-2.4,6.4l-3.1,0.3l-0.2-0.9l-0.7,2.3l0.3-0.1l11.1-0.9l-0.6,5.9l1.8,0.1l1.8-5.3l12.7,5.8l0.5-0.1l0.1,0.2
			l10.7-0.5L115.7-307.5z M103.5-319.4l-8.4-0.2l1.1-3.2l7.1,0.7L103.5-319.4z M103.2-323l-6.8-0.6l1.6-4.7l5.1,1L103.2-323z
			 M99.2-331.8l3.8,0.3l0.1,3.5l-4.9-1L99.2-331.8z M92.3-331.7l5.8-0.1l-1,2.7l-5-0.3L92.3-331.7z M92.1-328.8l4.8,0.3l-1.8,4.8
			l-3.4-0.3L92.1-328.8z M91.7-323.3l3.1,0.3l-1.2,3.3l-2.2-0.1L91.7-323.3z M89.2-331.7l2,0l-0.2,2.3l-2.3-0.1L89.2-331.7z
			 M85.1-331.6l3.1-0.1l-0.5,2l-3.1-0.2L85.1-331.6z M84.4-329.2l3.2,0.2l-0.3,1.3l-3.3,0.1L84.4-329.2z M83.1-324.9l0.6-2.1
			l3.4-0.1l-0.6,2.5L83.1-324.9z M89.4-313.3l-5.7,0.5l2.1-6.2l4.2,0.1L89.4-313.3z M90.1-319.8l-3.9-0.1l1.3-3.7l3,0.3L90.1-319.8z
			 M87.7-324.5l1-4.5l2.3,0.1l-0.5,4.6L87.7-324.5z M91-312.4l0.5-6.5l1.9,0.1L91-312.4z M97.3-310.7l-4.5-2l2-6l3.4,0.1L97.3-310.7
			z M98.9-310l0.8-8.6l3.9,0.1l0.8,11L98.9-310z M104.3-327.1l4.7,0.9l1.2,3.8l-5.6-0.5L104.3-327.1z M104.9-319.4l-0.3-2.7l5.5,0.5
			l-0.9,2.3L104.9-319.4z M105-318.4l3.9,0.1l-3.1,8.1L105-318.4z"/>
		<polygon class="st6" points="158.4,-303.6 158.4,-301.2 155.4,-302.9 		"/>
		<polygon class="st6" points="26.1,-295.1 26.1,-292.7 31.1,-295.9 		"/>
	</g>
	<path class="st1" d="M94.9-412.7c-18.7,0.3-33.8,15.7-33.7,34.4c0,1.2,0.1,2.5,0.2,3.7c1.5,13.6,11.1,24.8,23.8,28.8
		c2,0.6,3.6,2.1,4.4,4c0.2,0.6,0.4,1.2,0.5,1.8l2.9,22.4c0.4,2.8,4.4,2.8,4.7,0l2.9-22.4c0.4-2.7,2.2-5,4.9-5.8
		c13.9-4.3,24-17.3,24-32.7C129.6-397.6,114-413,94.9-412.7z M95.4-351.4c-2.9,0-5.7-0.5-8.3-1.3c0.7-1,2.2-3,3.2-3.9
		c1.2-1.2,2.4-3,2.4-3c0.3,0,1.4-0.1,1.4-0.1c0.3,1.4,10.5,1.6,10.5,1.6c-3.3,2.9-2.2,3.3-2.5,4.3c-0.1,0.5-0.4,1.1-0.7,1.7
		C99.6-351.7,97.5-351.4,95.4-351.4z M90.4-374c0.3,0.9,0.5,1.3-1.1,2.7c-1.5,1.4,0,1.8-2.9,1.5c0,0-0.6-0.2-0.9-1
		c-0.3-0.9-1.4-5.6-1.4-8.4c0,0,2-0.8,2.7-1.3c0,0,0.3,0.3,0.5,0.3c0.2,0,0.6-0.8,0.8-0.8c0.2,0,0.6,1,0.9,1.7
		c0.3,0.6,0.3,1.9,1,3.3C90.8-374.6,90.2-374.9,90.4-374z M109.7-355.5c1-1.4,1.6-2.4,1.7-2.7c0.3-0.6,0.5-1.1,0.2-1.5
		c-0.3-0.4-0.9-1.2-0.9-1.2c-3.2-3.9-10.4-5.7-11.1-5.8c-0.7-0.1-0.2-0.7-0.6-1.4c-0.4-0.7-0.8-1.3-0.5-2.9c0.3-1.6,0.3-1.7,0.3-3
		c0-1.3-0.2-3-0.2-3.6c0-0.6,0.3-3.1,0.3-3.1s0.7,0.7,1.4,1.5c0.7,0.8,1.9,0.5,1.9,0.5c2.3-2.2,2.6-6.2,2.6-6.2
		c0.7-0.3,0.9-1,1.8-1.4c0.9-0.4,1.6-0.2,1.6-0.7c0-0.5-1.1-0.2-1.6,0c-0.5,0.2-1,0.3-0.4-0.3c0.6-0.6,1.1-1.5,0.7-1.5
		c-0.4,0-1.1,0.9-1.1,0.9l0-0.2c0.6-0.5,1.2-1.5,0.9-1.6c-0.3-0.1-1.2,0.6-1.2,0.6s0.8-0.9,0.6-1.2c-0.3-0.3-1.2,0.6-1.7,1.1
		c-0.5,0.5-1.6,1.5-1.8,0.9c-0.2-0.7-0.4-1.3-0.7-1c-0.3,0.3-0.1,1.4,0.3,2.5c0.4,1.1,0.3,1.3,0.3,1.3s-0.7,1-0.9,1.6
		c-0.2,0.6-0.3,0.2-0.3,0.2c-0.4-1.4-2.2-2.4-2.3-2.9c-0.1-0.5-0.1-0.8-0.5-1.3c-0.4-0.5-1.7-1.4-0.4-1.2c1.3,0.2,1.3-0.6,1.1-0.8
		c-0.1-0.2,0.3-0.1,0.1-0.4c-0.2-0.3-0.7-0.3-0.1-0.6c0.6-0.3,0-1.3,0.6-1.4c0.6-0.1,0.9-0.3,0.5-0.8c-0.4-0.5-0.5-1-0.5-1.1
		c0-0.1,0.3,0.1,0.2-0.6c-0.1-0.7-1.5-2.3-1.5-2.3s1.6-1-2.6-1c-4.2-0.1-4.2,3.1-4.3,3.7c-0.1,0.6,0.5,2,0.7,2.4
		c0.2,0.3,0.1,1.3,0.1,1.3c-0.7,0-1.5,0.5-1.7,1c-0.2,0.5-0.4,0.7-0.7,0.8c-0.3,0.1-0.4,0.1-0.5,0.7c-0.1,0.6-0.9,0.9-0.9,0.9
		c-1.9,0.7-1.4,1.3-2.3,1.8c-0.9,0.5-2,1-2.8,1.8c-0.8,0.8-2.6,2.7-3.2,3.3c-0.6,0.6-0.6,0.8-0.5,1.1c0.1,0.3,0.2,0.7,0.2,0.7
		c0.7,3.9,1.7,6.1,2.4,7c0.6,0.9,1.2,2.4,1.2,2.4c-0.1,0.9,0.6,2.2,0.9,2.6c0.3,0.3,0.3,0.7,0.3,0.7v1.8c0,0,0,0.6,0.4,0.6
		c0.4,0,0.4-0.5,0.4-0.5l0-2.2c0.1,0,0.2,0,0.2,0c0.1,0.8,1.1,2.8,1.1,2.8c-2.8,4.1-3.5,7.7-3.7,8.2c-0.1,0.2-0.4,0.4-0.8,0.6
		c-8.2-4.6-13.7-13.3-13.7-23.3c0-14.8,12-26.7,26.7-26.7c14.8,0,26.7,12,26.7,26.7C122.1-368.6,117.2-360.3,109.7-355.5z"/>
	
		<text transform="matrix(1 0 0 1 166.3765 -340.1973)" class="st1" style="font-family:'BowlbyOne-Regular'; font-size:56.0864px; letter-spacing:4;">ANYWHERE FITNESS</text>
	<g>
		<path class="st1" d="M126.4,109.8l-19.6,1.9l1,2.9l0,0.2l0-0.2l0,0l-0.5-1.4l0,0l-0.5-1.5l-20.8-1.8l-21.9,1.9l-38.1,39.5
			l49.5-8.4l44.1,8.2l38.8-8.4L126.4,109.8z M77.9,135.3l0.4-1.2L77.9,135.3L77.9,135.3z M82.1,122.2l1.5-4.8L82.1,122.2L82.1,122.2
			z M108.9,117.9l1.6,5L108.9,117.9L108.9,117.9z M112.7,129.6l-0.5-1.4l0,0l-0.1-0.3l0.1,0.3L112.7,129.6L112.7,129.6z"/>
		<g>
			<g>
				<polygon class="st2" points="86.1,107.5 85.4,109.6 85.3,110 84.8,111.6 82.1,119.9 80.8,123.9 80.5,124.9 78.7,130.7 77.9,133 
					75.5,140.6 26.1,148.9 64.1,109.4 				"/>
			</g>
			<g>
				<polygon class="st2" points="158.4,140.4 119.7,148.8 116.2,138 115.7,136.5 113.3,129.1 112.9,128 112.2,125.8 111.9,124.8 
					111.4,123.2 108.9,115.6 108,112.8 107.8,112.2 106.9,109.3 126.4,107.4 				"/>
			</g>
			<polygon class="st3" points="112.7,127.2 112.2,125.8 112.2,125.8 108.9,115.6 108.9,115.6 108.7,114.9 107.8,112.2 107.8,112.2 
				107.4,110.8 107.3,110.8 107.3,110.8 106.9,109.3 86.1,107.5 85.3,109.8 85.3,110 85.1,110.7 82.1,119.9 82.1,119.9 81.4,122.1 
				77.9,133 77.9,133 75.5,140.6 119.7,148.8 			"/>
		</g>
		<path class="st4" d="M143.4,131.5l-13-8l5-1.7l-8.8-5.1l3.3-1.3l-4.5-2.4l1.3-0.8l-1-0.4l-1.2,0.8l-2.8-1.5l2.8-1.6l-0.9-0.3
			l-2.7,1.5l-2.1-1.1l-0.7,0.2l2.2,1.2l-2.8,1.6l-1.9-2.5l-1,0l1.9,2.7l-6.7-0.4l-0.1-1.9l-1-0.1l0,1.9l-1-0.1l0.2,0.5l0.9,0.1
			l0,2.7l2.5,7.6l0.3-0.8l9.2-3.5l2.2,4.6l-11.1,1.3l0.3,1l0,0l11.2-1.3l1.1,2.3l-11.6,1.2l0.4,1.1l11.7-1.2l3.8,8.1l-13.1,0.6
			l0.5,1.5l22.7-1l-1.1-1.5l-7.3,0.3l-3.9-7.9l16.5,4.4L143.4,131.5z M109.9,112.9l6.3,0.4l-6.1,3.4L109.9,112.9z M111.4,121.4
			l-1.2-3.7l2.5-1.4l2.8,3.6L111.4,121.4z M116.5,119.5l-3-3.7l3.7-2.1l3.1,4.4L116.5,119.5z M118,113.3l3.2-1.8l7,3.7l-6.8,2.5
			L118,113.3z M125.8,117l7.4,4.4l-4.1,1.4l-7-4.3L125.8,117z M124.3,123.4l-1.9-3.9l5.5,3.5L124.3,123.4z M126.1,126.9l-1.3-2.6
			l4.4-0.5l10.6,6.7L126.1,126.9z M85.1,109.5l-1.6,0.6l-1.1-1.3l-7.6,2.7l-1.1-1.7l-1,0.2l2.1,3.4l-5.6,2.2l-2.4-4.6l-1.1,0.3
			L68,116l-4.1,0.9l-0.4-1.8l-1.3,0.3l0.4,1.8l-2,0.4l0,0.6l2.2-0.5l0.6,2.7l-7.4,1.9l0,5l-6.4,2l-0.1,1l6.5-2.1l0,1.9l-10.4,3.7
			l-0.1,1.1l10.5-3.8l0,2.6l-16.1,6.5l-0.1,1.4l25.5-10.5l-1.5,6l1,0.5l13.3-4.8l0.7-2.3l-1.2-4.5l3.1-1.3l0.3-1l-0.2,0l-3.5,1.4
			l-1.4-3.4l6.3-2l2.7-8.3l-0.9-1.1l1.4-0.6l0.4-0.2l-0.3-0.2L85.1,109.5z M81.9,109.5l0.7,0.9l-6.8,2.6l-0.7-1.1L81.9,109.5z
			 M57.4,122.7l6-1.5l0.8,3.6l-6.6,2.1L57.4,122.7z M57.6,127.7l6.7-2.2l0.3,1.5l-7,2.5L57.6,127.7z M57.8,133.1l-0.1-2.5l7.1-2.6
			l0.4,2.1L57.8,133.1z M64.1,117.5l4.2-0.9l2.9,6l-5.5,1.7L64.1,117.5z M74.4,122.3l1.3,3.5l-8.8,3.5l-1.1-4.3L74.4,122.3z
			 M76,126.8l1.2,5.2l-11.4,4l1.2-5.5L76,126.8z M72.6,122.1l-2.7-5.1l9.3,3L72.6,122.1z M81.8,119.2l-1.1,0.3l-2.7-0.9l4.3-1.3
			L81.8,119.2z M82.7,116.5l-5.8,1.8l-3.3-1l10.3-4.5L82.7,116.5z M84,112.1L72.7,117l-2.8-0.9l13.2-5.2L84,112.1z"/>
		<path class="st5" d="M115.7,136.5l-9.1,0.4l2.6-7.4l4.1-0.4l-0.4-1.1l-3.3,0.3l0.9-2.6l1.7,0.1l0,0l-0.3-1l0,0l-1,0l0.5-1.6
			l-2.5-7.6l0,1.5l-4.6-0.9l-0.2-3.7l3.9,0.3l-0.2-0.5L104,112l-0.1-1.4l-1,0l0,1.4l-3.6-0.2l0.5-1.5l-1-0.1l-0.6,1.5l-5.6,0.1
			l2.1-2l-0.9-0.2l-2.3,2.2l-2.2,0l0.5-2.5l-1,0l-0.6,2.5l-3.3,0.1l-0.2-0.3l-2.7,8.3l0.1,0l3.9,0.4l-1.4,3.8l-3.9-0.1l-0.3,1
			l0.2-0.1l3.7,0.1l-2.4,6.4l-3.1,0.3l-0.2-0.9l-0.7,2.3l0.3-0.1l11.1-0.9l-0.6,5.9l1.8,0.1l1.8-5.3l12.7,5.8l0.5-0.1l0.1,0.2
			l10.7-0.5L115.7,136.5z M103.5,124.6l-8.4-0.2l1.1-3.2l7.1,0.7L103.5,124.6z M103.2,121l-6.8-0.6l1.6-4.7l5.1,1L103.2,121z
			 M99.2,112.2l3.8,0.3l0.1,3.5l-4.9-1L99.2,112.2z M92.3,112.3l5.8-0.1l-1,2.7l-5-0.3L92.3,112.3z M92.1,115.2l4.8,0.3l-1.8,4.8
			l-3.4-0.3L92.1,115.2z M91.7,120.7l3.1,0.3l-1.2,3.3l-2.2-0.1L91.7,120.7z M89.2,112.3l2,0l-0.2,2.3l-2.3-0.1L89.2,112.3z
			 M85.1,112.4l3.1-0.1l-0.5,2l-3.1-0.2L85.1,112.4z M84.4,114.8l3.2,0.2l-0.3,1.3l-3.3,0.1L84.4,114.8z M83.1,119.1l0.6-2.1
			l3.4-0.1l-0.6,2.5L83.1,119.1z M89.4,130.7l-5.7,0.5l2.1-6.2l4.2,0.1L89.4,130.7z M90.1,124.2l-3.9-0.1l1.3-3.7l3,0.3L90.1,124.2z
			 M87.7,119.5l1-4.5l2.3,0.1l-0.5,4.6L87.7,119.5z M91,131.6l0.5-6.5l1.9,0.1L91,131.6z M97.3,133.3l-4.5-2l2-6l3.4,0.1L97.3,133.3
			z M98.9,134l0.8-8.6l3.9,0.1l0.8,11L98.9,134z M104.3,116.9l4.7,0.9l1.2,3.8l-5.6-0.5L104.3,116.9z M104.9,124.6l-0.3-2.7l5.5,0.5
			l-0.9,2.3L104.9,124.6z M105,125.6l3.9,0.1l-3.1,8.1L105,125.6z"/>
		<polygon class="st6" points="158.4,140.4 158.4,142.8 155.4,141.1 		"/>
		<polygon class="st6" points="26.1,148.9 26.1,151.3 31.1,148.1 		"/>
	</g>
	<path class="st1" d="M94.9,31.3C76.2,31.6,61.1,47,61.2,65.7c0,1.2,0.1,2.5,0.2,3.7C62.9,83,72.5,94.2,85.2,98.1
		c2,0.6,3.6,2.1,4.4,4c0.2,0.6,0.4,1.2,0.5,1.8l2.9,22.4c0.4,2.8,4.4,2.8,4.7,0l2.9-22.4c0.4-2.7,2.2-5,4.9-5.8
		c13.9-4.3,24-17.3,24-32.7C129.6,46.4,114,31,94.9,31.3z M95.4,92.6c-2.9,0-5.7-0.5-8.3-1.3c0.7-1,2.2-3,3.2-3.9
		c1.2-1.2,2.4-3,2.4-3c0.3,0,1.4-0.1,1.4-0.1c0.3,1.4,10.5,1.6,10.5,1.6c-3.3,2.9-2.2,3.3-2.5,4.3c-0.1,0.5-0.4,1.1-0.7,1.7
		C99.6,92.3,97.5,92.6,95.4,92.6z M90.4,70c0.3,0.9,0.5,1.3-1.1,2.7c-1.5,1.4,0,1.8-2.9,1.5c0,0-0.6-0.2-0.9-1
		c-0.3-0.9-1.4-5.6-1.4-8.4c0,0,2-0.8,2.7-1.3c0,0,0.3,0.3,0.5,0.3c0.2,0,0.6-0.8,0.8-0.8c0.2,0,0.6,1,0.9,1.7
		c0.3,0.6,0.3,1.9,1,3.3C90.8,69.4,90.2,69.1,90.4,70z M109.7,88.5c1-1.4,1.6-2.4,1.7-2.7c0.3-0.6,0.5-1.1,0.2-1.5
		c-0.3-0.4-0.9-1.2-0.9-1.2c-3.2-3.9-10.4-5.7-11.1-5.8c-0.7-0.1-0.2-0.7-0.6-1.4c-0.4-0.7-0.8-1.3-0.5-2.9c0.3-1.6,0.3-1.7,0.3-3
		c0-1.3-0.2-3-0.2-3.6c0-0.6,0.3-3.1,0.3-3.1s0.7,0.7,1.4,1.5c0.7,0.8,1.9,0.5,1.9,0.5c2.3-2.2,2.6-6.2,2.6-6.2
		c0.7-0.3,0.9-1,1.8-1.4c0.9-0.4,1.6-0.2,1.6-0.7c0-0.5-1.1-0.2-1.6,0c-0.5,0.2-1,0.3-0.4-0.3c0.6-0.6,1.1-1.5,0.7-1.5
		c-0.4,0-1.1,0.9-1.1,0.9l0-0.2c0.6-0.5,1.2-1.5,0.9-1.6c-0.3-0.1-1.2,0.6-1.2,0.6s0.8-0.9,0.6-1.2c-0.3-0.3-1.2,0.6-1.7,1.1
		c-0.5,0.5-1.6,1.5-1.8,0.9c-0.2-0.7-0.4-1.3-0.7-1c-0.3,0.3-0.1,1.4,0.3,2.5c0.4,1.1,0.3,1.3,0.3,1.3s-0.7,1-0.9,1.6
		c-0.2,0.6-0.3,0.2-0.3,0.2c-0.4-1.4-2.2-2.4-2.3-2.9c-0.1-0.5-0.1-0.8-0.5-1.3c-0.4-0.5-1.7-1.4-0.4-1.2c1.3,0.2,1.3-0.6,1.1-0.8
		c-0.1-0.2,0.3-0.1,0.1-0.4c-0.2-0.3-0.7-0.3-0.1-0.6c0.6-0.3,0-1.3,0.6-1.4c0.6-0.1,0.9-0.3,0.5-0.8c-0.4-0.5-0.5-1-0.5-1.1
		c0-0.1,0.3,0.1,0.2-0.6c-0.1-0.7-1.5-2.3-1.5-2.3s1.6-1-2.6-1c-4.2-0.1-4.2,3.1-4.3,3.7c-0.1,0.6,0.5,2,0.7,2.4
		c0.2,0.3,0.1,1.3,0.1,1.3c-0.7,0-1.5,0.5-1.7,1c-0.2,0.5-0.4,0.7-0.7,0.8c-0.3,0.1-0.4,0.1-0.5,0.7c-0.1,0.6-0.9,0.9-0.9,0.9
		c-1.9,0.7-1.4,1.3-2.3,1.8c-0.9,0.5-2,1-2.8,1.8c-0.8,0.8-2.6,2.7-3.2,3.3c-0.6,0.6-0.6,0.8-0.5,1.1c0.1,0.3,0.2,0.7,0.2,0.7
		c0.7,3.9,1.7,6.1,2.4,7c0.6,0.9,1.2,2.4,1.2,2.4c-0.1,0.9,0.6,2.2,0.9,2.6c0.3,0.3,0.3,0.7,0.3,0.7v1.8c0,0,0,0.6,0.4,0.6
		c0.4,0,0.4-0.5,0.4-0.5l0-2.2c0.1,0,0.2,0,0.2,0c0.1,0.8,1.1,2.8,1.1,2.8c-2.8,4.1-3.5,7.7-3.7,8.2c-0.1,0.2-0.4,0.4-0.8,0.6
		c-8.2-4.6-13.7-13.3-13.7-23.3c0-14.8,12-26.7,26.7-26.7c14.8,0,26.7,12,26.7,26.7C122.1,75.4,117.2,83.7,109.7,88.5z"/>
	<g>
		<path class="st1" d="M212.8,104.1c0,0.2-0.5,0.4-1.5,0.4h-2.5l-1.7,0h-1.7l-2.7,0c-2.6,0-4.8-0.1-6.6-0.2c-0.1,0-0.1-0.1-0.2-0.3
			l-0.1-0.6c-0.2-1.9-0.6-3.7-1.3-5.4l-11.7,0.1c-0.1,0.3-0.3,1.2-0.7,2.8s-0.7,2.7-0.9,3.5c-0.2,0.2-1,0.3-2.6,0.3l-0.7,0h-1.6
			l-7.1,0.2h-0.8l-0.8,0h-1.9c-0.1-0.1-0.3-0.3-0.4-0.5c1.8-6.3,4.3-14.1,7.4-23.5l0.6-1.9h0l0.7-2.3c0.2-0.7,0.9-2.8,2-6.1
			c1.1-3.3,1.8-5.5,2.1-6.4s0.5-1.5,0.5-1.5h4.5l9.7-0.1l2.6,0.1l2.2-0.1c1.1,0,1.6,0.2,1.6,0.7c1.8,5.1,4.3,12.4,7.3,22
			c3,9.6,4.8,14.9,5.1,16.1l0.4,1.4C212.4,103,212.6,103.6,212.8,104.1z M185.7,89.2l1.1,0l6.5,0c-0.3-2.2-0.5-3.8-0.6-4.8l-1-4.7
			c-1.1-4.8-1.7-7.3-1.7-7.4c0-0.1-0.1-0.2-0.1-0.3c0-0.1-0.1-0.1-0.1-0.2s0-0.1-0.1-0.2c0-0.1-0.1-0.1-0.1-0.2s-0.1-0.1-0.1-0.1
			c-0.1-0.2-0.4-0.4-0.8-0.6c-0.5,0.1-2,5.6-4.4,16.5l-0.3,1.8H185.7z"/>
		<path class="st1" d="M260,84.6l0,1.8v10.1l0.1,4.8v1.4l0,1.3c-0.1,0.1-0.6,0.2-1.3,0.2H258l-8.6,0.1c-3.7,0-6.4,0-8.2,0
			c-0.3-0.3-1.3-2.9-3-8l-5.2-13.9l-1,0.1l0,2.8v7.4l0.1,7.4v3.1c0,0.8-0.2,1.3-0.5,1.3c-1.8-0.1-3.5-0.1-5.2-0.1h-0.8l-4.1,0.1
			h-0.5l-2,0.1l-0.1-0.1c-0.6-0.6-0.9-1-0.9-1.2V103l0-0.5l0.1-10.7c0-11.7,0.1-20.6,0.3-26.6l0.1-2.3c0-0.2,6.3-0.3,18.9-0.4
			c0.1,0.1,0.3,0.5,0.5,1.2v-0.1l0.2,0.5c1.4,3.9,3,8.3,4.9,13.3s2.9,7.6,3,7.7l0.9-0.1l0.1-22.3c0-0.1,1.3-0.2,4-0.2l6.9,0.1h2
			C260,68.7,260,76,260,84.6z"/>
		<path class="st1" d="M308.9,62.5l0.9,0c0.2,0.1,0.3,0.3,0.4,0.7l-0.8,1.6v0l-1.8,3.4c-2.7,5-4.4,8.3-5.2,9.9l-0.9,1.8
			c-1,1.9-2.7,5.3-5.1,10.2c0,0.6-0.1,1.6-0.1,2.8v11.3c-0.1,0.3-0.3,0.4-0.5,0.4l-15.7,0.1c-0.4-0.5-0.6-1.1-0.6-1.8l0.1-3.4v-0.8
			l0-0.8l0-2c0-3.8-1-7.9-2.9-12.3c-0.4-0.9-1-2.2-1.8-3.9l-4.1-8.2c-0.1-0.2-0.4-0.8-0.9-1.7s-1-1.9-1.6-3v0
			c-1.5-2.2-2.2-3.7-2.2-4.4c0-0.1,0.3-0.1,0.9-0.1h7c3.9,0,6.8,0,8.8,0.1c0.6,0.1,2.1,4.5,4.6,13.2l1.2,4.4
			c1.9-5,3.8-10.8,5.9-17.5c0-0.1,1.4-0.2,4.1-0.2h3.5c0.8,0,1.5,0,2.1,0.1H308.9z"/>
		<path class="st1" d="M335.2,62.6l4.8,0h10.7c0.1,0,0.1,0,0.2,0.1l1,6.4c0.3,1.9,0.7,4.7,1.2,8.4s0.9,6.1,1.1,7.1l0.2,1.5h1
			c0.5-5.3,1.4-12.2,2.7-20.8l0.1-0.6c0-0.1,0-0.3,0-0.6c0-0.4,0.1-0.8,0.3-1.1s0.6-0.4,1.4-0.4c5.9,0,10.1,0.2,12.8,0.5
			c0.1,0.1,0.1,0.3,0.2,0.6c-0.4,2-1.2,5.2-2.2,9.6s-1.8,7.6-2.2,9.9l-0.2,1c0,0.1-0.2,0.4-0.3,1c-0.2,0.5-0.3,0.9-0.3,1.1l-1.9,8.7
			l-0.9,4.3c-0.5,2.4-0.8,4.2-1,5.2l-0.1-0.1c-1.3,0.1-3.2,0.1-5.8,0.1h-4.3l-1.5,0c-2.1,0-3.9,0-5.6,0.1c-0.2,0-0.4-1.4-0.8-4.3
			s-0.6-4.4-0.6-4.6l-0.2-1.4c-0.6-3.8-1.2-7.9-1.8-12.1l-1,0c-1,5.4-2,11.9-2.8,19.6c-0.2,2-0.6,3.1-1.2,3.1
			c-2.6-0.1-5.1-0.1-7.6-0.1c-2.4,0-5.6,0.1-9.4,0.2c-0.5-0.4-0.9-1.5-1.2-3.3l-0.2-1.1c-0.7-3.7-2.1-10.5-4.3-20.4l-0.6-2.7
			c-0.2-1.1-0.7-3.2-1.4-6.3s-1.3-5.9-1.8-8.3c0-0.1,0.1-0.3,0.4-0.4c0.4,0.1,0.9,0.1,1.3,0.1h0.3l2.6-0.1l3.8-0.1
			c1.2,0,2.2,0,2.9,0.1h1.7c0.2,0,0.5,0,0.9,0.1h0.4c0.6,0,1.4,4.6,2.5,13.7c0.5,4.1,0.8,6.5,0.8,7.2l0.2,1.6l1.1,0
			c0.7-4.2,1.4-9.2,2.2-14.8c0-0.7,0.1-2,0.4-3.9c0.3-2,0.6-3.2,0.9-3.6C334.5,62.6,334.8,62.6,335.2,62.6z"/>
		<path class="st1" d="M418.3,94.4l0,3.3c0,1.4,0,3.5,0.1,6.5c-0.3,0.3-2.3,0.5-6.1,0.5c-3.8,0-7.2-0.1-10.2-0.2
			c0,0-0.2-0.3-0.5-0.7v-4.4l0.1-8.4c0-0.8-0.1-1.3-0.3-1.5c-0.2-0.1-0.7-0.2-1.7-0.2h-0.4c-1.7,0-3.1,0.1-4.1,0.2v3.8l-0.1,10.6
			c-0.3,0.3-2.6,0.4-6.9,0.4h-1.3c-3.7,0-6.4-0.1-8.1-0.2c-0.3-0.1-0.5-1.4-0.5-3.9l0.2-6.1l0.3-24.5v-1.3c0-0.3,0-1.2,0-2.9
			c0-1.6,0.1-2.7,0.3-3.1h0.1c1.2,0,2.1,0.1,2.7,0.1h3.1l3.3-0.1h1c3.1,0,4.9,0.4,5.4,1.1c0.3,0.4,0.4,0.9,0.4,1.7l-0.1,3.4V70
			l-0.2,5.4c0,0.4,0,0.9,0.1,1.6h1.7l0.7,0h2.2c0.8,0,1.6-0.1,2.5-0.2v-6.5l0-2v-1.9l0-0.4v-1.4c0-1.1,0-1.7,0.2-2
			c0.1-0.2,0.4-0.4,0.8-0.4l0.5,0h1.8l5.9-0.2c4.7,0,7.1,0.4,7.1,1.1v1.9l0,0.7l0,1.4v4.2l0.1,17.5c0,0.3,0,0.7-0.1,1.2v1.3
			c0,0.6,0,1.4,0.1,2.3V94.4z"/>
		<path class="st1" d="M428.1,69.9l-0.1-7.2c0,0,0.1,0,0.2,0.1c13.9-0.2,24.3-0.4,31.4-0.4c0.1,0,0.1,0.1,0.2,0.2v7.7
			c0,0.7,0,1.4-0.1,1.8c-0.1,0.3-0.6,0.4-1.6,0.4h-0.2c-4.4,0-9-0.1-13.8-0.2c0,0.2,0,0.5-0.1,0.9c0,0.4-0.1,0.7-0.1,0.9l-0.1,1
			c-0.1,0.7-0.2,1.9-0.2,3.6l8.5-0.2c1.5,0,2.5-0.1,3.2-0.1h0.4c1.1,0,1.8,0,2.2,0.1c0.3,0.1,0.5,0.3,0.5,0.6l0,0.2v0.7l0.1,7l0,0v0
			c-5.6,0.3-10,0.4-13.3,0.4h-1.3v6.6l14.9-0.5c0.8,0,1.3,0.1,1.6,0.4c0,0.5,0,1.2,0,2l0.2,7.4c0,0.5-0.2,0.7-0.6,0.8l-9.1-0.1
			c-1.8,0-5.3,0.1-10.7,0.2l-4.5,0.1c-3.2,0.1-5.5,0.2-7.1,0.2l-0.1-0.1h0c-0.2-0.2-0.4-0.4-0.5-0.5v-1l0.2-29.3L428.1,69.9z"/>
		<path class="st1" d="M480.2,62.6l8.8-0.1c1.9,0,3.6,0,5.1,0.1c4.1,0.1,7.2,1.1,9.3,2.9c2.1,1.8,3.2,4.4,3.2,7.6
			c0,2.3-0.7,4.2-2,5.8c-1.3,1.6-3.3,3-5.8,4.3c4.1,1.3,6.5,4.4,7.4,9.3c0.2,1.1,0.4,2.3,0.5,3.7c0.1,1.4,0.2,2.3,0.3,2.8l0.3,1.4
			c0.3,1.6,0.5,2.8,0.8,3.6l-0.1,0.1c-3.1,0.2-5.9,0.3-8.5,0.3s-4.8,0-6.8-0.1h-0.2c-0.6,0-1.2-2.7-1.8-8.1l-0.1-1.2
			c-0.1-2-0.4-3.4-1.1-4.1c-0.6-0.7-1.7-1-3.3-1l-0.4,0h-1.5v8.3l0,0.9v5c-0.1,0.2-0.2,0.3-0.4,0.3c-2,0.1-4.8,0.1-8.5,0.1
			c-3.7,0-6.1,0-7.2,0l-0.2-0.1l-0.1,0c0,0-0.1,0-0.2-0.1l0.1-2.5l0-0.8l0.1-11.4v-2l0-2.1l0-7.1l0-0.9l-0.1-6.2l0.1-8.7
			c0-0.1,0.5-0.2,1.6-0.2l1.8,0h1.7l3.5,0L480.2,62.6z M490.4,71.5c-1.1-0.5-2.6-0.7-4.4-0.7h-1.6c-0.2,0.3-0.3,1.8-0.3,4.6
			s0,4.7,0.1,5.6c5.7-0.1,8.6-2.1,8.6-5.9C492.8,73.5,492,72.3,490.4,71.5z M508,104L508,104C507.9,104,507.9,104,508,104L508,104z
			 M508.1,103.9L508,104V104C508,103.9,508,103.9,508.1,103.9z"/>
		<path class="st1" d="M515,69.9l-0.1-7.2c0,0,0.1,0,0.2,0.1c13.9-0.2,24.3-0.4,31.4-0.4c0.1,0,0.1,0.1,0.2,0.2v7.7
			c0,0.7,0,1.4-0.1,1.8c-0.1,0.3-0.6,0.4-1.6,0.4h-0.2c-4.4,0-9-0.1-13.8-0.2c0,0.2,0,0.5-0.1,0.9c0,0.4-0.1,0.7-0.1,0.9l-0.1,1
			c-0.1,0.7-0.2,1.9-0.2,3.6l8.5-0.2c1.5,0,2.5-0.1,3.2-0.1h0.4c1.1,0,1.8,0,2.2,0.1c0.3,0.1,0.5,0.3,0.5,0.6l0,0.2v0.7l0.1,7l0,0v0
			c-5.6,0.3-10,0.4-13.3,0.4h-1.3v6.6l14.9-0.5c0.8,0,1.3,0.1,1.6,0.4c0,0.5,0,1.2,0,2l0.2,7.4c0,0.5-0.2,0.7-0.6,0.8l-9.1-0.1
			c-1.8,0-5.3,0.1-10.7,0.2l-4.5,0.1c-3.2,0.1-5.5,0.2-7.1,0.2l-0.1-0.1h0c-0.2-0.2-0.4-0.4-0.5-0.5v-1l0.2-29.3L515,69.9z"/>
		<path class="st1" d="M610.5,63.7l0,2.5c0,2.5,0,4.7-0.1,6.7c-2.1,0.2-5.1,0.3-8.8,0.3l-6.3,0v0.8l-0.1,2.4c0,0.6,0,1.3,0.1,1.9
			c4.6-0.4,7.9-0.6,10.1-0.6s3.5,0.2,4,0.5v9.2c0,0.6-0.1,1-0.4,1.2c-0.2,0.2-0.6,0.3-1.1,0.3h-0.4l-1.5-0.1
			c-3.3,0.2-6.9,0.3-10.9,0.4l0.2,10.9l0,0.9v2.6c0,0.5-0.2,0.8-0.5,0.9l-15.7,0.1c0-0.1-0.2-0.4-0.4-0.7c-0.1-1.2-0.1-2.2-0.1-3.1
			l0.2-38.1c0-0.2,1.2-0.4,3.7-0.4l0.7,0h1.9l13.2-0.1l9.4,0.1h0.9l0.4,0c0.5,0,0.9,0.1,1,0.3C610.4,63,610.5,63.3,610.5,63.7z"/>
		<path class="st1" d="M617.3,100.9c0-3.7,0.1-6.3,0.3-7.7c0-7.9,0.1-15.9,0.3-24c-0.1-1.2-0.1-2.3-0.1-3.5v-0.9
			c-0.1-0.6-0.1-1.1-0.1-1.5s0-0.7,0.1-0.8c3.9,0.2,7.3,0.4,10.3,0.4c2.9,0,5-0.1,6.1-0.2c0,0.1,0.1,0.2,0.1,0.5h-0.2V73l0.2,22.3
			c0,0.2,0,0.3,0.1,0.4v0.1c0.1,0.1,0.1,0.2,0.1,0.4l0.2,8c-0.1,0.2-0.3,0.4-0.5,0.5h-0.9l-15.3,0.2c-0.2-0.1-0.4-0.2-0.7-0.4l0-0.5
			L617.3,100.9z"/>
		<path class="st1" d="M678.4,72.7c0,0.6-0.1,0.9-0.2,0.9l-9.9-0.1c0,1.8-0.1,4.5-0.1,8.3s0,6.4,0,7.8l0.1,14.5
			c-0.1,0.3-0.3,0.4-0.5,0.4l-5.8-0.1l0,0l-1.8,0h-5c-1.4,0-2.4,0-3,0l-0.5-0.4c0,0-0.1-0.2-0.4-0.4c0-1.6,0.1-5.2,0.2-10.7
			l0.3-14.6l-0.1-0.7c-0.1-1.8-0.3-2.9-0.4-3.2s-0.4-0.5-0.7-0.5s-0.6,0-0.8,0l-1.1,0.1l-6.8-0.1c-0.2-0.5-0.4-1.5-0.4-3.2l0.1-2.4
			v-0.7c0-2.9,0-4.5-0.1-4.7c0,0,0.1,0,0.2,0.1l34.9-0.3c0.7,0,1.2,0.1,1.3,0.2c0.2,0.1,0.3,0.3,0.3,0.6v7.2L678.4,72.7z"/>
		<path class="st1" d="M726.6,84.6l0,1.8v10.1l0.1,4.8v1.4l0,1.3c-0.1,0.1-0.6,0.2-1.3,0.2h-0.7l-8.6,0.1c-3.7,0-6.4,0-8.2,0
			c-0.3-0.3-1.3-2.9-3-8l-5.2-13.9l-1,0.1l0,2.8v7.4l0.1,7.4v3.1c0,0.8-0.2,1.3-0.5,1.3c-1.8-0.1-3.5-0.1-5.2-0.1h-0.8l-4.1,0.1
			h-0.5l-2,0.1l-0.1-0.1c-0.6-0.6-0.9-1-0.9-1.2V103l0-0.5l0.1-10.7c0-11.7,0.1-20.6,0.3-26.6l0.1-2.3c0-0.2,6.3-0.3,18.9-0.4
			c0.1,0.1,0.3,0.5,0.5,1.2v-0.1l0.2,0.5c1.4,3.9,3,8.3,4.9,13.3s2.9,7.6,3,7.7l0.9-0.1l0.1-22.3c0-0.1,1.3-0.2,4-0.2l6.9,0.1h2
			C726.6,68.7,726.6,76,726.6,84.6z"/>
		<path class="st1" d="M736.7,69.9l-0.1-7.2c0,0,0.1,0,0.2,0.1c13.9-0.2,24.3-0.4,31.4-0.4c0.1,0,0.1,0.1,0.2,0.2v7.7
			c0,0.7,0,1.4-0.1,1.8c-0.1,0.3-0.6,0.4-1.6,0.4h-0.2c-4.4,0-9-0.1-13.8-0.2c0,0.2,0,0.5-0.1,0.9c0,0.4-0.1,0.7-0.1,0.9l-0.1,1
			c-0.1,0.7-0.2,1.9-0.2,3.6l8.5-0.2c1.5,0,2.5-0.1,3.2-0.1h0.4c1.1,0,1.8,0,2.2,0.1c0.3,0.1,0.5,0.3,0.5,0.6l0,0.2v0.7l0.1,7l0,0v0
			c-5.6,0.3-10,0.4-13.3,0.4h-1.3v6.6l14.9-0.5c0.8,0,1.3,0.1,1.6,0.4c0,0.5,0,1.2,0,2l0.2,7.4c0,0.5-0.2,0.7-0.6,0.8l-9.1-0.1
			c-1.8,0-5.3,0.1-10.7,0.2l-4.5,0.1c-3.2,0.1-5.5,0.2-7.1,0.2l-0.1-0.1h0c-0.2-0.2-0.4-0.4-0.5-0.5v-1l0.2-29.3L736.7,69.9z"/>
		<path class="st1" d="M775.3,92.5l14.5-0.2c0.4,0,0.7,0.3,0.9,0.9c0.2,0.6,0.5,1.1,0.7,1.5c0.6,0.9,1.5,1.3,2.8,1.3
			c1.3,0,2.4-0.3,3.2-0.9c0.8-0.6,1.2-1.4,1.2-2.4s-0.2-1.6-0.7-2c-0.5-0.4-1-0.7-1.6-1c-0.6-0.3-1.4-0.6-2.6-0.8
			c-1.1-0.2-1.8-0.3-1.9-0.3h0.1l-1.6-0.4c-1-0.2-1.8-0.4-2.5-0.6c-4.4-1.2-7.5-2.6-9.5-4.4s-2.9-4.2-2.9-7.1c0-2.2,0.4-4.1,1.2-5.9
			c0.8-1.7,1.9-3.1,3.1-4.2c3.7-3.2,8.9-4.7,15.5-4.7c5.2,0,9.4,0.9,12.4,2.8h0c1.9,1.4,3.2,2.8,3.9,4.1s1.2,3,1.3,5l-0.7,0.7
			c-4.8,0.2-9.1,0.3-12.8,0.3c-1.1,0-1.8-0.3-2-1c-0.1-0.3-0.2-0.5-0.3-0.8c-0.3-0.7-1.1-1-2.5-1h-0.1c-1.1,0-2,0.3-2.8,0.8
			c-0.8,0.5-1.2,1-1.2,1.5c0,0.5,0.1,0.9,0.3,1.2c0.2,0.3,0.4,0.6,0.7,0.7c0.2,0.2,0.6,0.4,1.1,0.6s0.9,0.3,1.1,0.4
			c0.2,0.1,0.6,0.2,1.2,0.3l1,0.2c0.4,0.1,1.5,0.4,3.4,0.8c1.9,0.4,3.4,0.9,4.6,1.3v0c3.9,1.3,6.5,3,8,4.9c1.4,2,2.1,4.2,2.1,6.9
			c0,7-4.2,11.5-12.5,13.5c-2.4,0.6-5,1-7.7,1.3c-3.4,0-6.7-0.5-10-1.5s-5.5-2.6-6.6-4.8c-0.7-1.1-1.3-2.1-1.5-3s-0.5-2.2-0.6-3.8
			C775.1,92.5,775.2,92.5,775.3,92.5z"/>
		<path class="st1" d="M820.1,92.5l14.5-0.2c0.4,0,0.7,0.3,0.9,0.9c0.2,0.6,0.5,1.1,0.7,1.5c0.6,0.9,1.5,1.3,2.8,1.3
			c1.3,0,2.4-0.3,3.2-0.9c0.8-0.6,1.2-1.4,1.2-2.4s-0.2-1.6-0.7-2c-0.5-0.4-1-0.7-1.6-1c-0.6-0.3-1.4-0.6-2.6-0.8
			c-1.1-0.2-1.8-0.3-1.9-0.3h0.1l-1.6-0.4c-1-0.2-1.8-0.4-2.5-0.6c-4.4-1.2-7.5-2.6-9.5-4.4s-2.9-4.2-2.9-7.1c0-2.2,0.4-4.1,1.2-5.9
			c0.8-1.7,1.9-3.1,3.1-4.2c3.7-3.2,8.9-4.7,15.5-4.7c5.2,0,9.4,0.9,12.4,2.8h0c1.9,1.4,3.2,2.8,3.9,4.1s1.2,3,1.3,5l-0.7,0.7
			c-4.8,0.2-9.1,0.3-12.8,0.3c-1.1,0-1.8-0.3-2-1c-0.1-0.3-0.2-0.5-0.3-0.8c-0.3-0.7-1.1-1-2.5-1h-0.1c-1.1,0-2,0.3-2.8,0.8
			c-0.8,0.5-1.2,1-1.2,1.5c0,0.5,0.1,0.9,0.3,1.2c0.2,0.3,0.4,0.6,0.7,0.7c0.2,0.2,0.6,0.4,1.1,0.6s0.9,0.3,1.1,0.4
			c0.2,0.1,0.6,0.2,1.2,0.3l1,0.2c0.4,0.1,1.5,0.4,3.4,0.8c1.9,0.4,3.4,0.9,4.6,1.3v0c3.9,1.3,6.5,3,8,4.9c1.4,2,2.1,4.2,2.1,6.9
			c0,7-4.2,11.5-12.5,13.5c-2.4,0.6-5,1-7.7,1.3c-3.4,0-6.7-0.5-10-1.5s-5.5-2.6-6.6-4.8c-0.7-1.1-1.3-2.1-1.5-3s-0.5-2.2-0.6-3.8
			C819.9,92.5,820,92.5,820.1,92.5z"/>
	</g>
	<g>
		<path class="st1" d="M-1227.8-1419.9l-127.8,12.2l6.2,19.1l0.3,1l-0.3-1l0,0l-3-9.3l0,0l-3.2-9.8l-135.6-11.8l-143.3,12.3
			L-1883-1149l322.8-54.7l288.1,53.6l253.1-54.6L-1227.8-1419.9z M-1544.3-1253.2l2.5-8L-1544.3-1253.2L-1544.3-1253.2z
			 M-1517-1338.7l9.9-31L-1517-1338.7L-1517-1338.7z M-1342.3-1366.8l10.5,32.3L-1342.3-1366.8L-1342.3-1366.8z M-1317.6-1290.7
			l-3.1-9.5l0,0l-0.5-1.6l0.5,1.6L-1317.6-1290.7L-1317.6-1290.7z"/>
		<g>
			<g>
				<polygon class="st2" points="-1491.1,-1434.9 -1495.6,-1421 -1496.2,-1418.9 -1499.6,-1408.3 -1517,-1354.1 -1525.4,-1327.9 
					-1527.5,-1321.1 -1539.6,-1283.4 -1544.3,-1268.7 -1560.2,-1219.1 -1883,-1164.5 -1634.4,-1422.6 				"/>
			</g>
			<g>
				<polygon class="st2" points="-1019,-1220.1 -1272.1,-1165.5 -1294.8,-1235.6 -1298,-1245.4 -1313.7,-1294.1 -1316.1,-1301.3 
					-1320.7,-1315.6 -1322.8,-1322 -1326.2,-1332.5 -1342.3,-1382.2 -1348.2,-1400.4 -1349.3,-1404 -1355.6,-1423.1 
					-1227.8,-1435.3 				"/>
			</g>
			<polygon class="st3" points="-1317.6,-1306.1 -1320.7,-1315.6 -1320.7,-1315.6 -1342.3,-1382.2 -1342.3,-1382.2 -1343.8,-1386.9 
				-1349.3,-1404 -1349.3,-1404 -1352.4,-1413.3 -1352.4,-1413.3 -1352.4,-1413.3 -1355.6,-1423.1 -1491.1,-1434.9 -1496,-1419.7 
				-1496.2,-1418.9 -1497.8,-1414.1 -1517,-1354.1 -1517,-1354.1 -1521.7,-1339.3 -1544.3,-1268.7 -1544.3,-1268.7 -1560.2,-1219.1 
				-1272.1,-1165.5 			"/>
		</g>
		<path class="st4" d="M-1117.2-1278l-84.8-52.3l32.9-11.3l-57.6-33.2l21.7-8.3l-29.2-15.4l8.6-5.5l-6.6-2.6l-8,5l-18.2-9.6l18-10.2
			l-5.9-2.2l-17.4,9.6l-13.6-7.2l-4.6,1.5l14.5,7.8l-18.6,10.3l-12.3-16.4l-6.3,0.3l12.7,17.6l-43.6-2.9l-0.6-12.5l-6.7-0.5
			l0.2,12.5l-6.7-0.5l1.1,3.5l5.6,0.4l0.3,17.9l16.1,49.7l1.8-5.1l60-22.9l14.2,30.2l-72.5,8.2l2.1,6.4l0.3,0l73.1-8.4l7,14.9
			l-75.7,7.8l2.4,7.3l76.6-8.1l24.9,53.1l-85.7,3.6l3.2,9.9l148.5-6.5l-7.2-9.5l-47.5,2l-25.6-51.4l107.5,28.8L-1117.2-1278z
			 M-1335.4-1399.6l40.8,2.8l-39.7,22L-1335.4-1399.6z M-1325.6-1344.1l-8.1-24l16.1-9.2l18.6,23.3L-1325.6-1344.1z M-1292.5-1356.5
			l-19.8-23.9l24.5-13.9l20.5,28.5L-1292.5-1356.5z M-1282.8-1397.2l20.7-11.8l45.4,24.3l-44.3,16.5L-1282.8-1397.2z
			 M-1232.1-1372.7l48.5,28.5l-26.6,8.9l-45.9-28.3L-1232.1-1372.7z M-1241.6-1331.2l-12.6-25.4l36,22.7L-1241.6-1331.2z
			 M-1230.3-1308.3l-8.3-16.7l29-3.3l69.5,43.8L-1230.3-1308.3z M-1497.4-1422l-10.4,4l-6.9-8.2l-49.8,17.8l-7.4-11.2l-6.6,1.6
			l13.8,22l-36.7,14.2l-15.6-29.8l-7.1,1.8l14.8,30.3l-26.7,5.8l-2.9-11.8l-8.2,2l2.4,11.6l-13.2,2.9l-0.2,4.2l14.2-3.1l3.7,17.5
			l-48.4,12.3l0.1,32.6l-41.7,13.1l-0.5,6.5l42.1-13.5l0,12.4l-67.9,24.2l-0.4,7.5l68.4-24.9l0,17.2l-105.3,42.5l-0.7,9l166.6-68.7
			l-10,39.3l6.7,3.3l86.6-31.3l4.7-14.7l-7.8-29.5l19.9-8.2l2.2-6.8l-1.3,0l-22.8,9.2l-8.9-22.1l41.4-13.3l17.3-54.2l-5.9-7l9.3-3.7
			l2.6-1l-1.9-1.1L-1497.4-1422z M-1518.2-1421.6l4.7,5.8l-44.5,17.3l-4.6-7L-1518.2-1421.6z M-1678.3-1335.6l39.2-10.1l4.9,23.4
			l-43.1,13.6L-1678.3-1335.6z M-1677.1-1302.8l44-14.1l2,9.7l-45.6,16.3L-1677.1-1302.8z M-1675.8-1267.8l-0.6-16.5l46.6-16.9
			l2.9,13.7L-1675.8-1267.8z M-1635-1369.7l27.5-6.1l19.1,39l-35.8,11.3L-1635-1369.7z M-1567.2-1338l8.5,23l-57.3,23.1l-6.9-28.3
			L-1567.2-1338z M-1557-1309l7.9,33.8l-74.7,26.4l8.1-36L-1557-1309z M-1579.3-1339.7l-17.6-33.6l61,19.9L-1579.3-1339.7z
			 M-1519.3-1358.6l-6.9,2.2l-17.4-5.5l28.3-8.8L-1519.3-1358.6z M-1513.5-1375.9l-37.6,11.5l-21.4-6.8l67.2-29.3L-1513.5-1375.9z
			 M-1504.7-1404.9l-74.2,31.7l-18.4-5.9l86.1-33.9L-1504.7-1404.9z"/>
		<path class="st5" d="M-1298-1245.4l-59.3,2.5l16.8-48.4l26.8-2.8l-2.4-7.3l-21.7,2.2l5.8-16.8l11,0.3l0.2,0l-2.1-6.4l-0.3,0
			l-6.7-0.2l3.6-10.3l-16.1-49.7l0.1,9.9l-30.3-6l-1.4-24l25.7,1.8l-1.1-3.5l-24.7-1.7l-0.5-9.2l-6.6-0.2l0.3,9l-23.6-1.6l3.3-9.7
			l-6.4-0.6l-3.7,10.1l-36.8,0.6l13.5-13.2l-5.8-1.2l-15.3,14.6l-14.1,0.2l3.5-16.2l-6.3,0l-4,16.3l-21.2,0.4l-1.6-1.9l-17.3,54.2
			l0.9-0.3l25.6,2.4l-9.3,24.9l-25.6-0.8l-2.2,6.8l1.6-0.6l23.9,0.7l-15.6,41.6l-20.5,1.7l-1.5-5.6l-4.7,14.7l1.8-0.7l72.4-6.2
			l-3.8,38.2l11.6,0.9l11.8-34.8l82.8,38l3-0.9l0.3,1.6l69.7-3L-1298-1245.4z M-1377.7-1323.6l-54.7-1.6l7-20.8l46.4,4.4
			L-1377.7-1323.6z M-1379.3-1347l-44.4-4.1l10.5-30.9l33.1,6.7L-1379.3-1347z M-1405.7-1404.4l24.8,1.7l0.7,22.9l-31.7-6.2
			L-1405.7-1404.4z M-1450.4-1403.8l37.8-0.7l-6.5,17.6l-32.4-1.7L-1450.4-1403.8z M-1451.8-1384.6l31.2,1.6l-11.4,31.1l-22-2
			L-1451.8-1384.6z M-1454.3-1348.7l20.5,1.9l-7.8,21.3l-14.2-0.4L-1454.3-1348.7z M-1470.6-1403.5l13.3-0.2l-1.5,14.8l-14.8-0.8
			L-1470.6-1403.5z M-1497.6-1403l20-0.4l-3.3,13.3l-20.3-1L-1497.6-1403z M-1502.4-1387.2l20.6,1.1l-2.1,8.4l-21.6,0.8
			L-1502.4-1387.2z M-1510.9-1359.1l4.1-13.5l21.9-0.8l-4,16.4L-1510.9-1359.1z M-1469.4-1283.5l-37.4,3.1l14-40.4l27.1,0.8
			L-1469.4-1283.5z M-1465.1-1326.1l-25.6-0.8l8.4-24.4l19.5,1.8L-1465.1-1326.1z M-1480.8-1356.3l6.3-29.4l15.2,0.8l-3,30.3
			L-1480.8-1356.3z M-1459.4-1277.4l3-42.3l12.4,0.4L-1459.4-1277.4z M-1418.3-1266.4l-29.5-13.2l13.3-39.4l22.4,0.7L-1418.3-1266.4
			z M-1407.7-1261.7l5-56.3l25.5,0.8l5.2,71.5L-1407.7-1261.7z M-1372.2-1373.8l30.7,6.2l7.7,24.8l-36.7-3.4L-1372.2-1373.8z
			 M-1368.4-1323.3l-1.8-17.5l36,3.4l-5.7,14.9L-1368.4-1323.3z M-1367.7-1317l25.6,0.8l-20.1,53.1L-1367.7-1317z"/>
		<polygon class="st6" points="-1019,-1220.1 -1019,-1204.7 -1039,-1215.8 		"/>
		<polygon class="st6" points="-1883,-1164.5 -1883,-1149 -1850.1,-1170 		"/>
	</g>
	<path class="st1" d="M-1433.6-1932.3c-121.9,1.7-220.6,102.4-220,224.3c0,8.1,0.5,16.1,1.4,23.9c9.9,88.9,72.2,162.1,155.2,188
		c13.2,4.1,23.7,14,28.9,26.4c1.5,3.7,2.6,7.6,3.1,11.7l19.2,146.1c2.4,18,28.4,18,30.8,0l19.2-146.1c2.3-17.7,14.6-32.7,31.7-38
		c90.9-28.2,157-113,157-213.2C-1207.2-1833.5-1308.8-1934.1-1433.6-1932.3z M-1430.4-1532.2c-18.9,0-37.1-3-54.1-8.6
		c4.5-6.5,14.7-19.3,20.9-25.6c7.8-7.8,15.8-19.8,15.8-19.8c2,0,9.4-0.7,9.4-0.7c1.8,8.9,68.5,10.7,68.5,10.7
		c-21.5,18.9-14.4,21.8-16.2,28.3c-0.9,3.3-2.6,7.3-4.3,11C-1403.2-1533.8-1416.6-1532.2-1430.4-1532.2z M-1462.8-1679.5
		c1.8,6.1,3,8.5-7,17.9c-10,9.3,0.2,11.7-18.8,9.7c0,0-4-1.1-5.7-6.8c-1.7-5.7-9.2-36.6-9.3-54.7c0,0,13.2-5,17.8-8.5
		c0,0,2,1.9,3.1,2c1.1,0.1,4-5.3,5.5-5.3c1.6,0,3.8,6.8,5.8,10.8c2,4,1.7,12.2,6.4,21.6C-1460.1-1683.5-1464.6-1685.6-1462.8-1679.5
		z M-1337.1-1559.2c6.4-9.3,10.3-15.9,11.2-17.6c2.1-4.1,3-7.1,1-10c-2-2.9-5.6-7.8-5.6-7.8c-21.1-25.4-67.8-37.2-72.1-37.6
		c-4.3-0.3-1.2-4.5-3.7-9.4c-2.4-4.9-5.5-8.7-3.5-19.1c2-10.5,2-11.1,1.8-19.4c-0.2-8.2-1.3-19.4-1.3-23.4c0-4,2-20.5,2-20.5
		s4.9,4.9,9.3,10c4.4,5.1,12.6,3.3,12.6,3.3c15.3-14.7,17.3-40.5,17.3-40.5c4.5-2,5.8-6.6,11.7-9.5c6-2.9,10.3-1.5,10.1-4.6
		c-0.2-3.1-7-1.3-10.5-0.2c-3.5,1.1-6.2,2.3-2.3-1.9c3.9-4.2,6.9-9.7,4.5-10c-2.4-0.3-7.4,6-7.4,6l-0.2-1.1
		c3.7-3.1,7.8-9.7,5.7-10.6c-2.1-0.9-7.5,3.9-7.5,3.9s5.5-5.7,3.8-7.8c-1.8-2.1-7.5,3.8-11,7c-3.4,3.2-10.3,10-11.5,5.7
		c-1.2-4.3-2.8-8.3-4.8-6.2c-2,2.1-0.7,9.2,1.7,16.2c2.3,7,2,8.3,2,8.3s-4.5,6.5-5.7,10.6c-1.1,4.1-2.1,1.4-2.1,1.4
		c-2.4-8.9-14.4-15.4-15-18.8c-0.6-3.4-0.7-5.2-3.1-8.7c-2.4-3.4-11.2-9.1-2.5-8.1c8.6,1,8.2-3.9,7.3-5.2c-0.9-1.3,2.1-0.9,0.8-2.6
		c-1.3-1.7-4.9-1.9-0.8-3.8c4.1-1.9-0.1-8.6,3.7-9.2c3.8-0.7,6-2.2,3.1-5.2c-2.9-3-3.2-6.2-3.3-7c-0.1-0.8,1.9,0.6,1.1-3.9
		c-0.8-4.5-9.8-14.8-9.8-14.8s10.6-6.5-16.8-6.8c-27.5-0.3-27.5,20.2-27.9,24.4c-0.4,4.1,3.3,13.2,4.4,15.4c1.1,2.1,0.6,8.2,0.6,8.2
		c-4.8,0.1-9.5,3.6-11,6.8c-1.4,3.2-2.7,4.7-4.7,5c-2,0.3-2.8,0.9-3.2,4.6c-0.4,3.7-5.7,5.6-5.7,5.6c-12.5,4.4-9.2,8.3-15.3,11.7
		c-6.1,3.3-13,6.7-18.1,11.9c-5.1,5.2-17.1,17.7-20.8,21.4c-3.8,3.7-4,5.5-3.2,7.5c0.8,2,1.2,4.8,1.2,4.8
		c4.4,25.4,11.3,39.8,15.5,45.8c4.2,6,8.1,15.9,8.1,15.9c-0.4,5.6,3.9,14.5,5.8,16.7c1.9,2.3,2.2,4.6,2.2,4.6v11.5
		c0,0-0.1,4.1,2.6,4.2c2.7,0.1,2.4-3.4,2.4-3.4l-0.1-14.4c0.5-0.2,1.2-0.3,1.2-0.3c0.7,4.9,7.1,18,7.1,18
		c-18.4,26.9-23.1,50.3-24.2,53.4c-0.4,1.1-2.7,2.6-5.5,4.2c-53.3-29.9-89.3-86.9-89.3-152.4c0-96.4,78.2-174.6,174.6-174.6
		c96.4,0,174.6,78.2,174.6,174.6C-1255.8-1644.7-1288.3-1590.2-1337.1-1559.2z"/>
	
		<text transform="matrix(1 0 0 1 -967.0625 -1459.051)" class="st1" style="font-family:'BowlbyOne-Regular'; font-size:366.1179px; letter-spacing:27;">Anywhere Fitness</text>
</g>
</svg>
